<svg width="100%" height="100%" viewBox="0 0 86 86" fill="none" xmlns="http://www.w3.org/2000/svg">
          
          <path d="M43.6437 34.6358C41.1604 34.6358 39.14 32.6154 39.14 30.132C39.14 27.6487 41.1604 25.6283 43.6437 25.6283C46.1271 25.6283 48.1475 27.6487 48.1475 30.132C48.1475 32.6154 46.1271 34.6358 43.6437 34.6358ZM57.7984 60.3716C55.3151 60.3716 53.2947 58.3512 53.2947 55.8678C53.2947 53.3845 55.3151 51.3641 57.7984 51.3641C60.2818 51.3641 62.3022 53.3845 62.3022 55.8678C62.3022 58.3512 60.2818 60.3716 57.7984 60.3716Z" fill="#ffc147" stroke="#ffc147" stroke-width="1.28679" stroke-linecap="round"></path>
          <path d="M25.3944 44.6292C20.3554 45.8838 16.6211 50.4403 16.6211 55.868C16.6211 62.2646 21.8056 67.4491 28.2022 67.4491C34.5989 67.4491 39.7833 62.2646 39.7833 55.868H53.938" stroke="#ffc147" stroke-width="3.86037" stroke-miterlimit="10" stroke-linecap="round"></path>
          <path d="M45.4634 33.4414L52.2126 45.72C53.87 44.8063 55.7731 44.2865 57.7986 44.2865C64.1952 44.2865 69.3797 49.471 69.3797 55.8676C69.3797 62.2642 64.1952 67.4487 57.7986 67.4487C54.6781 67.4487 51.8472 66.2147 49.7638 64.2086" stroke="#ffc147" stroke-width="3.86037" stroke-miterlimit="10" stroke-linecap="round"></path>
          <path d="M24.3033 58.118L24.3032 58.118C23.0618 55.9694 23.8003 53.2079 25.9502 51.9649C26.9948 51.3638 28.2074 51.2038 29.3665 51.5166L29.3679 51.517C30.5309 51.828 31.5008 52.572 32.1025 53.6144C32.7044 54.6569 32.8639 55.8684 32.5518 57.0313L32.5516 57.0319C32.2406 58.1949 31.4966 59.1648 30.4542 59.7665L30.4542 59.7665C29.7478 60.1744 28.9752 60.3688 28.2126 60.3688C26.6515 60.3688 25.1356 59.5589 24.3033 58.118ZM23.7463 58.4398L23.7462 58.4398L23.7463 58.4398Z" fill="#ffc147" stroke="#ffc147" stroke-width="1.28679" stroke-linecap="round"></path>
          <path d="M30.1577 52.6366L37.7575 40.1084C34.3488 38.0933 32.0622 34.3796 32.0622 30.1319C32.0622 23.7353 37.2466 18.5508 43.6433 18.5508C50.0399 18.5508 55.2244 23.7353 55.2244 30.1319C55.2244 31.3209 55.0455 32.4674 54.7123 33.547" stroke="#ffc147" stroke-width="3.86037" stroke-miterlimit="10" stroke-linecap="round"></path>
        </svg>